<svg width="271" height="59" viewBox="0 0 271 59" fill="none" xmlns="http://www.w3.org/2000/svg">
<circle cx="29.5" cy="29.5" r="28.5" stroke="#8953B7" stroke-width="2"/>
<path d="M48.5842 51.0116C49.5118 22.8428 46.768 8.89765 40.3529 9.16583C33.9281 9.434 24.713 23.3155 12 52C21.2077 22.3253 23.9484 8.56189 18.5 8.5C13.0516 8.43811 6.73467 17.4071 1.95996 36.4166" stroke="#8953B7" stroke-width="2"/>
<path d="M93.6549 17.825C96.3549 17.825 98.3349 18.665 99.5949 20.345C100.885 21.995 101.53 24.185 101.53 26.915V39.65C101.53 40.04 101.395 40.37 101.125 40.64C100.885 40.88 100.57 41 100.18 41C99.7899 41 99.4599 40.88 99.1899 40.64C98.9499 40.37 98.8299 40.04 98.8299 39.65V27.05C98.8299 25.07 98.3499 23.465 97.3899 22.235C96.4599 20.975 95.0049 20.345 93.0249 20.345C91.7649 20.345 90.5649 20.645 89.4249 21.245C88.3149 21.845 87.4149 22.67 86.7249 23.72C86.0349 24.74 85.6899 25.85 85.6899 27.05V39.65C85.6899 40.04 85.5549 40.37 85.2849 40.64C85.0449 40.88 84.7299 41 84.3399 41C83.9499 41 83.6199 40.88 83.3499 40.64C83.1099 40.37 82.9899 40.04 82.9899 39.65V26.915C82.9899 24.965 82.5399 23.39 81.6399 22.19C80.7399 20.96 79.3299 20.345 77.4099 20.345C76.1799 20.345 75.0099 20.645 73.8999 21.245C72.8199 21.845 71.9349 22.655 71.2449 23.675C70.5849 24.665 70.2549 25.745 70.2549 26.915V39.65C70.2549 40.04 70.1199 40.37 69.8499 40.64C69.6099 40.88 69.2949 41 68.9049 41C68.5149 41 68.1849 40.88 67.9149 40.64C67.6749 40.37 67.5549 40.04 67.5549 39.65V19.49C67.5549 19.1 67.6749 18.785 67.9149 18.545C68.1849 18.275 68.5149 18.14 68.9049 18.14C69.2949 18.14 69.6099 18.275 69.8499 18.545C70.1199 18.785 70.2549 19.1 70.2549 19.49V22.1C71.0649 20.87 72.1599 19.85 73.5399 19.04C74.9199 18.23 76.3749 17.825 77.9049 17.825C79.6449 17.825 81.1449 18.245 82.4049 19.085C83.6649 19.925 84.5649 21.155 85.1049 22.775C85.7349 21.455 86.8899 20.3 88.5699 19.31C90.2499 18.32 91.9449 17.825 93.6549 17.825Z" fill="#8953B7"/>
<path d="M131.865 29.48C131.865 31.73 131.37 33.77 130.38 35.6C129.39 37.43 128.025 38.87 126.285 39.92C124.545 40.94 122.61 41.45 120.48 41.45C118.35 41.45 116.415 40.94 114.675 39.92C112.935 38.87 111.57 37.43 110.58 35.6C109.59 33.77 109.095 31.73 109.095 29.48C109.095 27.23 109.59 25.19 110.58 23.36C111.57 21.53 112.935 20.09 114.675 19.04C116.415 17.99 118.35 17.465 120.48 17.465C122.61 17.465 124.545 17.99 126.285 19.04C128.025 20.09 129.39 21.53 130.38 23.36C131.37 25.19 131.865 27.23 131.865 29.48ZM129.165 29.48C129.165 27.68 128.79 26.06 128.04 24.62C127.29 23.18 126.24 22.055 124.89 21.245C123.57 20.405 122.1 19.985 120.48 19.985C118.86 19.985 117.39 20.405 116.07 21.245C114.75 22.055 113.7 23.18 112.92 24.62C112.17 26.06 111.795 27.68 111.795 29.48C111.795 31.25 112.17 32.855 112.92 34.295C113.7 35.735 114.75 36.875 116.07 37.715C117.39 38.525 118.86 38.93 120.48 38.93C122.1 38.93 123.57 38.525 124.89 37.715C126.24 36.905 127.29 35.78 128.04 34.34C128.79 32.9 129.165 31.28 129.165 29.48Z" fill="#8953B7"/>
<path d="M150.258 17.465C153.048 17.465 155.088 18.29 156.378 19.94C157.698 21.56 158.358 23.72 158.358 26.42V39.65C158.358 40.04 158.223 40.37 157.953 40.64C157.683 40.88 157.368 41 157.008 41C156.618 41 156.288 40.88 156.018 40.64C155.778 40.37 155.658 40.04 155.658 39.65V26.555C155.658 24.605 155.163 23.03 154.173 21.83C153.213 20.6 151.713 19.985 149.673 19.985C148.383 19.985 147.153 20.285 145.983 20.885C144.843 21.485 143.913 22.295 143.193 23.315C142.473 24.305 142.113 25.385 142.113 26.555V39.65C142.113 40.04 141.978 40.37 141.708 40.64C141.468 40.88 141.153 41 140.763 41C140.373 41 140.043 40.88 139.773 40.64C139.533 40.37 139.413 40.04 139.413 39.65V19.49C139.413 19.1 139.533 18.785 139.773 18.545C140.043 18.275 140.373 18.14 140.763 18.14C141.153 18.14 141.468 18.275 141.708 18.545C141.978 18.785 142.113 19.1 142.113 19.49V21.965C142.923 20.675 144.078 19.61 145.578 18.77C147.108 17.9 148.668 17.465 150.258 17.465Z" fill="#8953B7"/>
<path d="M188.693 29.48C188.693 31.73 188.198 33.77 187.208 35.6C186.218 37.43 184.853 38.87 183.113 39.92C181.373 40.94 179.438 41.45 177.308 41.45C175.178 41.45 173.243 40.94 171.503 39.92C169.763 38.87 168.398 37.43 167.408 35.6C166.418 33.77 165.923 31.73 165.923 29.48C165.923 27.23 166.418 25.19 167.408 23.36C168.398 21.53 169.763 20.09 171.503 19.04C173.243 17.99 175.178 17.465 177.308 17.465C179.438 17.465 181.373 17.99 183.113 19.04C184.853 20.09 186.218 21.53 187.208 23.36C188.198 25.19 188.693 27.23 188.693 29.48ZM185.993 29.48C185.993 27.68 185.618 26.06 184.868 24.62C184.118 23.18 183.068 22.055 181.718 21.245C180.398 20.405 178.928 19.985 177.308 19.985C175.688 19.985 174.218 20.405 172.898 21.245C171.578 22.055 170.528 23.18 169.748 24.62C168.998 26.06 168.623 27.68 168.623 29.48C168.623 31.25 168.998 32.855 169.748 34.295C170.528 35.735 171.578 36.875 172.898 37.715C174.218 38.525 175.688 38.93 177.308 38.93C178.928 38.93 180.398 38.525 181.718 37.715C183.068 36.905 184.118 35.78 184.868 34.34C185.618 32.9 185.993 31.28 185.993 29.48Z" fill="#8953B7"/>
<path d="M200.741 20.615V35.69C200.741 36.83 200.951 37.61 201.371 38.03C201.791 38.42 202.346 38.615 203.036 38.615C203.216 38.615 203.441 38.585 203.711 38.525C203.981 38.435 204.191 38.39 204.341 38.39C204.611 38.39 204.836 38.51 205.016 38.75C205.226 38.96 205.331 39.215 205.331 39.515C205.331 39.935 205.091 40.295 204.611 40.595C204.131 40.865 203.561 41 202.901 41C202.091 41 201.371 40.925 200.741 40.775C200.111 40.625 199.496 40.175 198.896 39.425C198.326 38.675 198.041 37.475 198.041 35.825V20.615H194.756C194.396 20.615 194.081 20.495 193.811 20.255C193.571 20.015 193.451 19.715 193.451 19.355C193.451 18.995 193.571 18.695 193.811 18.455C194.081 18.215 194.396 18.095 194.756 18.095H198.041V13.1C198.041 12.71 198.161 12.395 198.401 12.155C198.671 11.885 199.001 11.75 199.391 11.75C199.781 11.75 200.096 11.885 200.336 12.155C200.606 12.395 200.741 12.71 200.741 13.1V18.095H205.241C205.571 18.095 205.856 18.23 206.096 18.5C206.366 18.77 206.501 19.07 206.501 19.4C206.501 19.76 206.381 20.06 206.141 20.3C205.901 20.51 205.601 20.615 205.241 20.615H200.741Z" fill="#8953B7"/>
<path d="M232.735 28.175C232.735 28.535 232.6 28.85 232.33 29.12C232.06 29.36 231.745 29.48 231.385 29.48H214.375C214.375 31.28 214.735 32.9 215.455 34.34C216.205 35.75 217.255 36.875 218.605 37.715C219.985 38.525 221.605 38.93 223.465 38.93C224.905 38.93 226.195 38.63 227.335 38.03C228.475 37.43 229.39 36.665 230.08 35.735C230.41 35.465 230.725 35.33 231.025 35.33C231.325 35.33 231.595 35.45 231.835 35.69C232.075 35.93 232.195 36.2 232.195 36.5C232.195 36.83 232.045 37.145 231.745 37.445C230.785 38.615 229.57 39.575 228.1 40.325C226.66 41.075 225.13 41.45 223.51 41.45C221.2 41.45 219.16 40.955 217.39 39.965C215.62 38.975 214.24 37.595 213.25 35.825C212.26 34.025 211.765 31.955 211.765 29.615C211.765 27.155 212.245 25.01 213.205 23.18C214.195 21.32 215.5 19.91 217.12 18.95C218.74 17.96 220.465 17.465 222.295 17.465C224.095 17.465 225.775 17.885 227.335 18.725C228.925 19.565 230.215 20.795 231.205 22.415C232.195 24.035 232.705 25.955 232.735 28.175ZM222.295 20.075C220.555 20.075 218.935 20.675 217.435 21.875C215.965 23.075 215.02 24.8 214.6 27.05H229.945V26.69C229.795 25.34 229.345 24.17 228.595 23.18C227.845 22.16 226.9 21.395 225.76 20.885C224.65 20.345 223.495 20.075 222.295 20.075Z" fill="#8953B7"/>
<path d="M242.935 39.65C242.935 40.04 242.8 40.37 242.53 40.64C242.29 40.88 241.975 41 241.585 41C241.195 41 240.865 40.88 240.595 40.64C240.355 40.37 240.235 40.04 240.235 39.65V18.95C240.235 18.56 240.355 18.245 240.595 18.005C240.865 17.735 241.195 17.6 241.585 17.6C241.975 17.6 242.29 17.735 242.53 18.005C242.8 18.245 242.935 18.56 242.935 18.95V39.65ZM241.585 14.585C240.985 14.585 240.52 14.45 240.19 14.18C239.86 13.88 239.695 13.46 239.695 12.92V12.47C239.695 11.93 239.86 11.525 240.19 11.255C240.55 10.955 241.03 10.805 241.63 10.805C242.83 10.805 243.43 11.36 243.43 12.47V12.92C243.43 13.46 243.265 13.88 242.935 14.18C242.635 14.45 242.185 14.585 241.585 14.585Z" fill="#8953B7"/>
<path d="M262.819 17.465C265.609 17.465 267.649 18.29 268.939 19.94C270.259 21.56 270.919 23.72 270.919 26.42V39.65C270.919 40.04 270.784 40.37 270.514 40.64C270.244 40.88 269.929 41 269.569 41C269.179 41 268.849 40.88 268.579 40.64C268.339 40.37 268.219 40.04 268.219 39.65V26.555C268.219 24.605 267.724 23.03 266.734 21.83C265.774 20.6 264.274 19.985 262.234 19.985C260.944 19.985 259.714 20.285 258.544 20.885C257.404 21.485 256.474 22.295 255.754 23.315C255.034 24.305 254.674 25.385 254.674 26.555V39.65C254.674 40.04 254.539 40.37 254.269 40.64C254.029 40.88 253.714 41 253.324 41C252.934 41 252.604 40.88 252.334 40.64C252.094 40.37 251.974 40.04 251.974 39.65V19.49C251.974 19.1 252.094 18.785 252.334 18.545C252.604 18.275 252.934 18.14 253.324 18.14C253.714 18.14 254.029 18.275 254.269 18.545C254.539 18.785 254.674 19.1 254.674 19.49V21.965C255.484 20.675 256.639 19.61 258.139 18.77C259.669 17.9 261.229 17.465 262.819 17.465Z" fill="#8953B7"/>
</svg>
